<?xml version="1.0" encoding="UTF-8" standalone="no"?>
<!DOCTYPE svg PUBLIC "-//W3C//DTD SVG 20010904//EN"
              "http://www.w3.org/TR/2001/REC-SVG-20010904/DTD/svg10.dtd">

<svg xmlns="http://www.w3.org/2000/svg"
     width="24.5333in" height="16.3733in"
     viewBox="0 0 7360 4912">
  <path id="Selection"
        fill="none" stroke="black" stroke-width="1"
        d="M 3588.58,734.00
           C 3588.58,734.00 3608.00,663.00 3608.00,663.00
             3608.00,663.00 3616.29,633.00 3616.29,633.00
             3617.22,629.73 3618.44,622.97 3620.70,620.70
             3622.95,618.44 3637.16,614.22 3641.00,613.02
             3641.00,613.02 3688.00,598.00 3688.00,598.00
             3688.00,598.00 3865.00,541.33 3865.00,541.33
             3865.00,541.33 3967.00,508.66 3967.00,508.66
             3967.00,508.66 4125.00,457.98 4125.00,457.98
             4125.00,457.98 4210.00,430.67 4210.00,430.67
             4210.00,430.67 4255.00,416.16 4255.00,416.16
             4255.00,416.16 4267.00,416.16 4267.00,416.16
             4267.00,416.16 4280.00,415.00 4280.00,415.00
             4280.00,415.00 4301.00,415.00 4301.00,415.00
             4301.00,415.00 4318.00,414.00 4318.00,414.00
             4318.00,414.00 4337.00,414.00 4337.00,414.00
             4337.00,414.00 4353.00,413.00 4353.00,413.00
             4353.00,413.00 4408.00,412.00 4408.00,412.00
             4408.00,412.00 4425.00,411.00 4425.00,411.00
             4425.00,411.00 4446.00,411.00 4446.00,411.00
             4446.00,411.00 4459.00,410.00 4459.00,410.00
             4459.00,410.00 4479.00,410.00 4479.00,410.00
             4479.00,410.00 4496.00,409.00 4496.00,409.00
             4496.00,409.00 4550.00,408.00 4550.00,408.00
             4550.00,408.00 4567.00,407.00 4567.00,407.00
             4567.00,407.00 4587.00,407.00 4587.00,407.00
             4587.00,407.00 4603.00,406.00 4603.00,406.00
             4603.00,406.00 4625.00,406.00 4625.00,406.00
             4625.00,406.00 4638.00,405.00 4638.00,405.00
             4638.00,405.00 4657.00,405.00 4657.00,405.00
             4657.00,405.00 4674.00,404.00 4674.00,404.00
             4674.00,404.00 4695.00,404.00 4695.00,404.00
             4695.00,404.00 4711.00,403.00 4711.00,403.00
             4711.00,403.00 4730.00,403.00 4730.00,403.00
             4730.00,403.00 4746.00,402.00 4746.00,402.00
             4746.00,402.00 4766.00,402.00 4766.00,402.00
             4766.00,402.00 4782.00,401.00 4782.00,401.00
             4782.00,401.00 4802.00,401.00 4802.00,401.00
             4802.00,401.00 4817.00,400.00 4817.00,400.00
             4817.00,400.00 4872.00,399.00 4872.00,399.00
             4872.00,399.00 4887.00,398.00 4887.00,398.00
             4887.00,398.00 4907.00,398.00 4907.00,398.00
             4907.00,398.00 4924.00,397.00 4924.00,397.00
             4924.00,397.00 4945.00,397.00 4945.00,397.00
             4945.00,397.00 4961.00,396.00 4961.00,396.00
             4961.00,396.00 4980.00,396.00 4980.00,396.00
             4980.00,396.00 4996.00,395.00 4996.00,395.00
             4996.00,395.00 5050.00,394.00 5050.00,394.00
             5050.00,394.00 5067.00,393.00 5067.00,393.00
             5067.00,393.00 5089.00,393.00 5089.00,393.00
             5089.00,393.00 5102.00,392.00 5102.00,392.00
             5102.00,392.00 5122.00,392.00 5122.00,392.00
             5122.00,392.00 5139.00,391.00 5139.00,391.00
             5139.00,391.00 5159.00,391.00 5159.00,391.00
             5159.00,391.00 5175.00,390.00 5175.00,390.00
             5175.00,390.00 5229.00,389.00 5229.00,389.00
             5229.00,389.00 5246.00,388.00 5246.00,388.00
             5246.00,388.00 5267.00,388.00 5267.00,388.00
             5267.00,388.00 5282.00,387.00 5282.00,387.00
             5282.00,387.00 5337.00,386.00 5337.00,386.00
             5337.00,386.00 5352.00,385.00 5352.00,385.00
             5352.00,385.00 5371.00,385.00 5371.00,385.00
             5371.00,385.00 5388.00,384.00 5388.00,384.00
             5388.00,384.00 5479.00,382.00 5479.00,382.00
             5479.00,382.00 5494.00,381.00 5494.00,381.00
             5494.00,381.00 5515.00,381.00 5515.00,381.00
             5515.00,381.00 5532.00,380.00 5532.00,380.00
             5532.00,380.00 5551.00,380.00 5551.00,380.00
             5551.00,380.00 5567.00,379.00 5567.00,379.00
             5567.00,379.00 5622.00,378.00 5622.00,378.00
             5622.00,378.00 5638.00,377.00 5638.00,377.00
             5638.00,377.00 5659.00,377.00 5659.00,377.00
             5659.00,377.00 5673.00,376.00 5673.00,376.00
             5693.80,375.76 5714.40,380.38 5735.00,382.85
             5735.00,382.85 5854.00,398.72 5854.00,398.72
             5854.00,398.72 6149.00,436.28 6149.00,436.28
             6149.00,436.28 6351.00,459.17 6351.00,459.17
             6351.00,459.17 6422.00,465.04 6422.00,465.04
             6422.00,465.04 6430.00,465.91 6430.00,465.91
             6437.05,466.39 6448.11,466.23 6455.00,465.00
             6455.00,465.00 6448.00,476.00 6448.00,476.00
             6448.00,476.00 6480.00,481.58 6480.00,481.58
             6480.00,481.58 6530.00,490.58 6530.00,490.58
             6530.00,490.58 6687.00,518.58 6687.00,518.58
             6687.00,518.58 7135.00,598.58 7135.00,598.58
             7135.00,598.58 7295.00,627.20 7295.00,627.20
             7295.00,627.20 7331.00,633.58 7331.00,633.58
             7342.56,635.66 7343.87,634.50 7344.00,642.00
             7344.00,642.00 7343.00,667.00 7343.00,667.00
             7343.00,667.00 7341.00,779.00 7341.00,779.00
             7341.00,779.00 7340.00,795.00 7340.00,795.00
             7340.00,795.00 7340.00,804.00 7340.00,804.00
             7340.00,804.00 7334.08,844.00 7334.08,844.00
             7334.08,844.00 7323.08,910.00 7323.08,910.00
             7323.08,910.00 7318.25,939.00 7318.25,939.00
             7317.77,941.86 7317.05,949.24 7315.15,951.15
             7312.82,953.48 7298.02,955.04 7294.00,955.80
             7294.00,955.80 7235.00,965.92 7235.00,965.92
             7235.00,965.92 7015.00,1002.41 7015.00,1002.41
             7015.00,1002.41 6876.00,1024.27 6876.00,1024.27
             6851.09,1027.94 6802.17,1036.11 6779.00,1036.00
             6779.00,1036.00 6763.00,1035.00 6763.00,1035.00
             6763.00,1035.00 6741.00,1035.00 6741.00,1035.00
             6741.00,1035.00 6724.00,1034.00 6724.00,1034.00
             6724.00,1034.00 6684.00,1034.00 6684.00,1034.00
             6684.00,1034.00 6667.00,1033.00 6667.00,1033.00
             6667.00,1033.00 6613.00,1033.00 6613.00,1033.00
             6613.00,1033.00 6598.00,1032.00 6598.00,1032.00
             6598.00,1032.00 6537.00,1032.00 6537.00,1032.00
             6537.00,1032.00 6520.00,1031.00 6520.00,1031.00
             6520.00,1031.00 6457.00,1031.00 6457.00,1031.00
             6457.00,1031.00 6440.00,1030.00 6440.00,1030.00
             6440.00,1030.00 6376.00,1030.00 6376.00,1030.00
             6376.00,1030.00 6359.00,1029.00 6359.00,1029.00
             6359.00,1029.00 6290.00,1029.00 6290.00,1029.00
             6290.00,1029.00 6275.00,1028.00 6275.00,1028.00
             6275.00,1028.00 6206.00,1028.00 6206.00,1028.00
             6206.00,1028.00 6191.00,1027.00 6191.00,1027.00
             6191.00,1027.00 6129.00,1027.00 6129.00,1027.00
             6129.00,1027.00 6112.00,1026.00 6112.00,1026.00
             6112.00,1026.00 6050.00,1026.00 6050.00,1026.00
             6050.00,1026.00 6033.00,1025.00 6033.00,1025.00
             6033.00,1025.00 5972.00,1025.00 5972.00,1025.00
             5972.00,1025.00 5955.00,1024.00 5955.00,1024.00
             5955.00,1024.00 5900.00,1024.00 5900.00,1024.00
             5900.00,1024.00 5883.00,1023.00 5883.00,1023.00
             5883.00,1023.00 5832.00,1023.00 5832.00,1023.00
             5832.00,1023.00 5817.00,1022.00 5817.00,1022.00
             5817.00,1022.00 5773.00,1022.00 5773.00,1022.00
             5773.00,1022.00 5756.00,1021.00 5756.00,1021.00
             5756.00,1021.00 5716.00,1021.00 5716.00,1021.00
             5716.00,1021.00 5699.00,1020.00 5699.00,1020.00
             5699.00,1020.00 5670.00,1020.00 5670.00,1020.00
             5670.00,1020.00 5653.00,1019.00 5653.00,1019.00
             5653.00,1019.00 5626.00,1019.00 5626.00,1019.00
             5626.00,1019.00 5611.00,1018.00 5611.00,1018.00
             5611.00,1018.00 5593.00,1018.00 5593.00,1018.00
             5593.00,1018.00 5581.00,1017.04 5581.00,1017.04
             5581.00,1017.04 5569.00,1017.04 5569.00,1017.04
             5569.00,1017.04 5550.00,1016.00 5550.00,1016.00
             5550.00,1016.00 5524.00,1014.09 5524.00,1014.09
             5524.00,1014.09 5467.00,1010.91 5467.00,1010.91
             5467.00,1010.91 5437.00,1009.00 5437.00,1009.00
             5437.00,1009.00 5427.00,1008.09 5427.00,1008.09
             5427.00,1008.09 5404.00,1007.00 5404.00,1007.00
             5404.00,1007.00 5394.00,1006.00 5394.00,1006.00
             5394.00,1006.00 5385.00,1006.00 5385.00,1006.00
             5385.00,1006.00 5372.00,1005.00 5372.00,1005.00
             5372.00,1005.00 5354.00,1004.00 5354.00,1004.00
             5354.00,1004.00 5344.00,1003.00 5344.00,1003.00
             5344.00,1003.00 5335.00,1003.00 5335.00,1003.00
             5335.00,1003.00 5322.00,1002.00 5322.00,1002.00
             5322.00,1002.00 5292.00,1000.00 5292.00,1000.00
             5292.00,1000.00 5274.00,999.00 5274.00,999.00
             5274.00,999.00 5261.00,998.00 5261.00,998.00
             5261.00,998.00 5252.00,998.00 5252.00,998.00
             5252.00,998.00 5241.00,997.00 5241.00,997.00
             5241.00,997.00 5225.00,996.00 5225.00,996.00
             5225.00,996.00 5202.00,994.91 5202.00,994.91
             5202.00,994.91 5192.00,994.00 5192.00,994.00
             5192.00,994.00 5174.00,993.00 5174.00,993.00
             5174.00,993.00 5154.00,992.00 5154.00,992.00
             5154.00,992.00 5144.00,991.09 5144.00,991.09
             5144.00,991.09 5121.00,990.00 5121.00,990.00
             5121.00,990.00 5107.00,989.00 5107.00,989.00
             5107.00,989.00 5090.00,988.00 5090.00,988.00
             5090.00,988.00 5054.00,986.00 5054.00,986.00
             5054.00,986.00 5040.00,985.00 5040.00,985.00
             5040.00,985.00 5027.00,984.00 5027.00,984.00
             5027.00,984.00 5018.00,984.00 5018.00,984.00
             5018.00,984.00 5005.00,983.00 5005.00,983.00
             5005.00,983.00 4987.00,982.00 4987.00,982.00
             4987.00,982.00 4974.00,981.00 4974.00,981.00
             4974.00,981.00 4951.00,979.91 4951.00,979.91
             4951.00,979.91 4940.00,979.00 4940.00,979.00
             4940.00,979.00 4923.00,978.00 4923.00,978.00
             4923.00,978.00 4906.00,977.00 4906.00,977.00
             4906.00,977.00 4870.00,975.00 4870.00,975.00
             4870.00,975.00 4860.00,974.00 4860.00,974.00
             4860.00,974.00 4850.00,974.00 4850.00,974.00
             4850.00,974.00 4836.00,973.00 4836.00,973.00
             4836.00,973.00 4826.00,972.09 4826.00,972.09
             4826.00,972.09 4803.00,971.00 4803.00,971.00
             4803.00,971.00 4789.00,970.00 4789.00,970.00
             4789.00,970.00 4753.00,968.00 4753.00,968.00
             4753.00,968.00 4736.00,967.00 4736.00,967.00
             4736.00,967.00 4722.00,966.00 4722.00,966.00
             4722.00,966.00 4709.00,965.00 4709.00,965.00
             4709.00,965.00 4700.00,965.00 4700.00,965.00
             4700.00,965.00 4687.00,964.00 4687.00,964.00
             4687.00,964.00 4669.00,963.00 4669.00,963.00
             4669.00,963.00 4659.00,962.00 4659.00,962.00
             4659.00,962.00 4650.00,962.00 4650.00,962.00
             4650.00,962.00 4637.00,961.00 4637.00,961.00
             4637.00,961.00 4619.00,960.00 4619.00,960.00
             4619.00,960.00 4609.00,959.09 4609.00,959.09
             4609.00,959.09 4586.00,958.00 4586.00,958.00
             4586.00,958.00 4576.00,957.09 4576.00,957.09
             4576.00,957.09 4553.00,956.00 4553.00,956.00
             4553.00,956.00 4536.00,955.00 4536.00,955.00
             4536.00,955.00 4526.00,954.09 4526.00,954.09
             4526.00,954.09 4503.00,953.00 4503.00,953.00
             4503.00,953.00 4489.00,952.00 4489.00,952.00
             4489.00,952.00 4453.00,950.00 4453.00,950.00
             4453.00,950.00 4443.00,949.09 4443.00,949.09
             4443.00,949.09 4420.00,948.00 4420.00,948.00
             4420.00,948.00 4410.00,947.00 4410.00,947.00
             4410.00,947.00 4401.00,947.00 4401.00,947.00
             4401.00,947.00 4388.00,946.00 4388.00,946.00
             4388.00,946.00 4377.00,945.09 4377.00,945.09
             4377.00,945.09 4354.00,944.00 4354.00,944.00
             4354.00,944.00 4344.00,943.00 4344.00,943.00
             4344.00,943.00 4335.00,943.00 4335.00,943.00
             4335.00,943.00 4322.00,942.00 4322.00,942.00
             4322.00,942.00 4311.00,941.09 4311.00,941.09
             4311.00,941.09 4288.00,940.00 4288.00,940.00
             4288.00,940.00 4278.00,939.09 4278.00,939.09
             4278.00,939.09 4253.00,937.91 4253.00,937.91
             4253.00,937.91 4239.00,937.00 4239.00,937.00
             4239.00,937.00 4213.00,935.00 4213.00,935.00
             4213.00,935.00 4204.00,935.00 4204.00,935.00
             4204.00,935.00 4165.00,932.09 4165.00,932.09
             4165.00,932.09 4140.00,930.91 4140.00,930.91
             4140.00,930.91 4038.00,924.09 4038.00,924.09
             4038.00,924.09 3979.00,919.69 3979.00,919.69
             3979.00,919.69 3912.00,897.69 3912.00,897.69
             3912.00,897.69 3808.00,861.69 3808.00,861.69
             3808.00,861.69 3657.00,808.69 3657.00,808.69
             3657.00,808.69 3606.00,790.69 3606.00,790.69
             3606.00,790.69 3576.00,780.00 3576.00,780.00
             3576.00,780.00 3588.58,734.00 3588.58,734.00 Z" />
</svg>
